<svg width="50" height="50" viewBox="0 0 50 50" fill="none" xmlns="http://www.w3.org/2000/svg">
<path d="M30.5164 33.4441H19.5427L17.7269 38.6941H11.9243L21.8322 11.102H28.2664L38.1743 38.6941H32.3322L30.5164 33.4441ZM29.0164 29.023L25.0296 17.4967L21.0427 29.023H29.0164Z" fill="#56BA63"/>
<path fill-rule="evenodd" clip-rule="evenodd" d="M25 50C38.8071 50 50 38.8071 50 25C50 11.1929 38.8071 0 25 0C11.1929 0 0 11.1929 0 25C0 38.8071 11.1929 50 25 50ZM25.2467 47.6151C37.6004 47.6151 47.6151 37.6004 47.6151 25.2467C47.6151 12.893 37.6004 2.87829 25.2467 2.87829C12.893 2.87829 2.87829 12.893 2.87829 25.2467C2.87829 37.6004 12.893 47.6151 25.2467 47.6151Z" fill="#56BA63"/>
</svg>
