<svg width="24" height="24" viewBox="0 0 24 24" fill="none" xmlns="http://www.w3.org/2000/svg">
<path fill-rule="evenodd" clip-rule="evenodd" d="M3 3.75C3 2.75544 3.39509 1.8016 4.09835 1.09835C4.80162 0.395088 5.75544 0 6.75 0H19.875C20.1734 0 20.4596 0.118526 20.6705 0.329505C20.8815 0.540483 21 0.826632 21 1.125V19.875C21 20.1733 20.8815 20.4596 20.6705 20.6705C20.4596 20.8815 20.1734 21 19.875 21H16.125C15.8267 21 15.5405 20.8815 15.3296 20.6705C15.1185 20.4596 15 20.1733 15 19.875C15 19.5767 15.1185 19.2904 15.3296 19.0795C15.5405 18.8685 15.8267 18.75 16.125 18.75H18.75V15.75H6.75C6.45462 15.75 6.16584 15.8373 5.91986 16.0008C5.67386 16.1643 5.48163 16.3968 5.36724 16.6692C5.25287 16.9414 5.22144 17.2415 5.2769 17.5317C5.33235 17.8218 5.47224 18.0891 5.679 18.3C5.88786 18.5133 6.00345 18.8007 6.00036 19.0992C5.99727 19.3977 5.87574 19.6827 5.6625 19.8915C5.44928 20.1003 5.1618 20.2159 4.86333 20.2128C4.56488 20.2098 4.27986 20.0883 4.071 19.875C3.38357 19.1744 2.99894 18.2316 3 17.25V3.75ZM18.75 2.25V13.5H6.75C6.216 13.5 5.709 13.611 5.25 13.812V3.75C5.25 3.35217 5.40804 2.97064 5.68934 2.68933C5.97065 2.40804 6.35217 2.25 6.75 2.25H18.75ZM7.5 18.375V23.25C7.5 23.3196 7.5194 23.3879 7.55601 23.4471C7.59263 23.5064 7.64501 23.5542 7.7073 23.5854C7.76958 23.6166 7.83932 23.6298 7.90868 23.6235C7.97804 23.6172 8.04429 23.5918 8.1 23.55L10.275 21.9195C10.3399 21.8707 10.4189 21.8445 10.5 21.8445C10.5811 21.8445 10.6601 21.8707 10.725 21.9195L12.9 23.55C12.9557 23.5918 13.022 23.6172 13.0913 23.6235C13.1607 23.6298 13.2304 23.6166 13.2927 23.5854C13.355 23.5542 13.4074 23.5064 13.444 23.4471C13.4806 23.3879 13.5 23.3196 13.5 23.25V18.375C13.5 18.2756 13.4605 18.1802 13.3902 18.1098C13.3198 18.0395 13.2245 18 13.125 18H7.875C7.77555 18 7.68017 18.0395 7.60983 18.1098C7.53951 18.1802 7.5 18.2756 7.5 18.375Z" fill="#09100A"/>
</svg>
