<svg width="22" height="22" viewBox="0 0 22 22" fill="none" xmlns="http://www.w3.org/2000/svg">
<path fill-rule="evenodd" clip-rule="evenodd" d="M11 0.34375C11.1925 0.343626 11.3812 0.397394 11.5448 0.49897C11.7083 0.600545 11.8402 0.745872 11.9254 0.9185L14.5131 6.16412L20.3019 7.00562C20.4923 7.03328 20.6712 7.11363 20.8182 7.23762C20.9653 7.36159 21.0749 7.52425 21.1343 7.70719C21.1938 7.89015 21.201 8.0861 21.1549 8.27289C21.109 8.45969 21.0117 8.62989 20.8739 8.76425L16.6856 12.848L17.6743 18.612C17.7068 18.8016 17.6858 18.9966 17.6133 19.1749C17.5409 19.3533 17.42 19.5077 17.2644 19.6208C17.1087 19.734 16.9245 19.8014 16.7325 19.8153C16.5406 19.8292 16.3486 19.7891 16.1783 19.6996L11 16.9771L5.82177 19.6996C5.65153 19.789 5.45969 19.829 5.2679 19.8151C5.07613 19.8012 4.89205 19.734 4.73645 19.6211C4.58087 19.5081 4.45995 19.3538 4.3874 19.1758C4.31482 18.9977 4.29347 18.803 4.32577 18.6134L5.31577 12.8466L1.12477 8.76425C0.986673 8.62994 0.888956 8.45965 0.842692 8.27265C0.796426 8.08565 0.803463 7.88943 0.863003 7.70623C0.922545 7.52302 1.03221 7.36015 1.17957 7.23609C1.32693 7.11202 1.5061 7.03171 1.69677 7.00425L7.48552 6.16412L10.0746 0.9185C10.1599 0.745872 10.2917 0.600545 10.4553 0.49897C10.6188 0.397394 10.8075 0.343626 11 0.34375ZM11 3.70563L9.09564 7.5625C9.02169 7.71224 8.91248 7.84178 8.7774 7.93998C8.64231 8.03818 8.48539 8.1021 8.32014 8.12625L4.06177 8.745L7.14177 11.748C7.2616 11.8647 7.35126 12.0088 7.403 12.1678C7.45474 12.3269 7.46702 12.4961 7.43877 12.661L6.71277 16.9015L10.5201 14.8995C10.6681 14.8217 10.8328 14.7811 11 14.7811C11.1672 14.7811 11.3319 14.8217 11.4799 14.8995L15.2886 16.9015L14.5599 12.661C14.5317 12.4961 14.5439 12.3269 14.5956 12.1678C14.6475 12.0088 14.7371 11.8647 14.8569 11.748L17.9369 8.74638L13.6799 8.12762C13.5146 8.10348 13.3577 8.03956 13.2227 7.94135C13.0876 7.84315 12.9784 7.71361 12.9044 7.56387L11 3.70425V3.70563Z" fill="#09100A"/>
</svg>
